<svg id="图层_1" data-name="图层 1" xmlns="http://www.w3.org/2000/svg" viewBox="0 0 601.66 219.11"><defs><style>.cls-1{fill:#f40009;}.cls-2{fill:#fff;}.cls-3{fill:#727272;}</style></defs><title>logo-横版</title><path class="cls-1" d="M1141.23,1274.48c4.71,11.9,9.55,23.75,14.39,35.6,4.4,10.78,9.93,21.92,8.86,33.9-1.54,17.25-22,13.48-33.63,10-10.92-3.26-21.59-7.53-32.31-11.38l-34.23-12.28-3.76-1.35c-10.78-3.87-21.58-7.74-32.09-12.3-4.78-2.07-10.45-4-14.53-7.24a46.57,46.57,0,0,1-9.67-9.57,25.36,25.36,0,0,1-4.65-18.81c2.41-14,12.18-26.26,21.16-36.77,10.4-12.16,21.24-24.2,33.81-34.19,11.08-8.8,29.44-21.86,44.29-16.41,11.73,4.31,16.51,17.94,21.08,28.41C1127.5,1239.39,1133.81,1257.16,1141.23,1274.48Z" transform="translate(-999.29 -1192.41)"/><rect class="cls-2" x="1027.58" y="1248.3" width="39.26" height="12.94" rx="4.22" ry="4.22" transform="translate(-1206.85 1109.57) rotate(-90)"/><rect class="cls-2" x="1057.76" y="1284.65" width="59.32" height="12.94" rx="4.26" ry="4.26" transform="translate(-1202.99 1186.12) rotate(-90)"/><rect class="cls-2" x="1076.33" y="1240.49" width="22.18" height="12.94" rx="4.26" ry="4.26" transform="translate(-1158.84 1141.97) rotate(-90)"/><rect class="cls-2" x="1035.49" y="1283.16" width="22.18" height="12.94" rx="4.26" ry="4.26" transform="translate(-1242.34 1143.79) rotate(-90)"/><rect class="cls-2" x="1040.74" y="1261.46" width="53.15" height="12.94" rx="4.26" ry="4.26" transform="translate(1135.34 1343.45) rotate(-180)"/><rect class="cls-2" x="1069.31" y="1286.4" width="81.55" height="12.94" rx="4.26" ry="4.26" transform="translate(-1182.07 1210.55) rotate(-90)"/><circle class="cls-2" cx="110.8" cy="49.93" r="6.47"/><rect class="cls-1" x="1309.85" y="1292.84" width="96.31" height="12.94" rx="6.47" ry="6.47" transform="translate(-940.59 1464.91) rotate(-90)"/><rect class="cls-1" x="1435.78" y="1324.02" width="33.96" height="12.94" rx="6.47" ry="6.47" transform="translate(-877.01 1590.84) rotate(-90)"/><path class="cls-1" d="M1439.83,1326.44a6.49,6.49,0,0,1,6.47,6.47v-6.47Z" transform="translate(-999.29 -1192.41)"/><path class="cls-1" d="M1439.84,1241a6.49,6.49,0,0,1,6.47,6.47V1241Z" transform="translate(-999.29 -1192.41)"/><path class="cls-1" d="M1439.84,1264.09a6.49,6.49,0,0,1,6.47,6.47v-6.47Z" transform="translate(-999.29 -1192.41)"/><rect class="cls-1" x="331.94" y="35.66" width="33.25" height="12.94" rx="6.47" ry="6.47"/><rect class="cls-1" x="410.47" y="121.09" width="49.49" height="12.94" rx="6.47" ry="6.47"/><rect class="cls-1" x="410.45" y="35.66" width="49.51" height="12.94" rx="4.12" ry="4.12"/><rect class="cls-1" x="373.88" y="58.74" width="86.08" height="12.94" rx="0.69" ry="0.69"/><rect class="cls-1" x="373.88" y="101.46" width="86.08" height="12.94" rx="6.47" ry="6.47"/><rect class="cls-1" x="373.88" y="81.82" width="86.08" height="12.94" rx="4.12" ry="4.12"/><rect class="cls-1" x="1423.22" y="1251.15" width="59.11" height="12.94" rx="4.12" ry="4.12" transform="translate(-804.13 1517.99) rotate(-90)"/><rect class="cls-1" x="1350.09" y="1251.15" width="59.11" height="12.94" rx="6.47" ry="6.47" transform="translate(-877.27 1444.85) rotate(-90)"/><rect class="cls-1" x="1356.52" y="1281.29" width="119.38" height="12.94" rx="6.47" ry="6.47" transform="translate(-870.84 1511.56) rotate(-90)"/><rect class="cls-1" x="331.94" y="58.74" width="33.25" height="12.94" rx="6.47" ry="6.47"/><rect class="cls-1" x="352.25" y="142.1" width="31.76" height="12.94" rx="6.47" ry="6.47"/><path class="cls-1" d="M1402.71,1305.79l-18.83,38.2a6.93,6.93,0,0,1-9.45,2.51h0a6.93,6.93,0,0,1-2.27-9.51l18.83-38.2a6.93,6.93,0,0,1,9.45-2.51h0A6.93,6.93,0,0,1,1402.71,1305.79Z" transform="translate(-999.29 -1192.41)"/><path class="cls-1" d="M1346.31,1264.09c2.88,0,5.23,2.91,5.23,6.47v-6.47Z" transform="translate(-999.29 -1192.41)"/><rect class="cls-1" x="1577.72" y="1242.97" width="23.71" height="12.94" rx="6.47" ry="6.47" transform="translate(1155.09 -1884.33) rotate(68.05)"/><rect class="cls-1" x="1509.02" y="1312.73" width="49.08" height="12.94" rx="6.47" ry="6.47" transform="translate(1853.47 -1406.77) rotate(90)"/><rect class="cls-1" x="1475.65" y="1274.82" width="40.87" height="12.94" rx="6.47" ry="6.47" transform="translate(1778.09 -1407.21) rotate(90)"/><rect class="cls-1" x="470.03" y="142.1" width="128.49" height="12.94" rx="6.47" ry="6.47"/><rect class="cls-1" x="1500.62" y="1233.02" width="23.71" height="12.94" rx="6.47" ry="6.47" transform="translate(-71.21 1913.2) rotate(-111.95)"/><rect class="cls-1" x="1465.65" y="1243.01" width="23.71" height="12.94" rx="6.47" ry="6.47" transform="translate(2189.35 -846.38) rotate(111.95)"/><rect class="cls-1" x="473.82" y="45.6" width="47.84" height="12.94" rx="6.47" ry="6.47"/><rect class="cls-1" x="1527.09" y="1238.02" width="67" height="12.94" rx="6.47" ry="6.47" transform="translate(2121.89 1296.56) rotate(-180)"/><rect class="cls-1" x="1519" y="1229.68" width="29.11" height="12.94" rx="6.47" ry="6.47" transform="matrix(0, -1, 1, 0, -701.88, 1577.3)"/><rect class="cls-1" x="490.33" y="68.44" width="75.62" height="12.94" rx="6.47" ry="6.47"/><rect class="cls-1" x="490.33" y="96.38" width="75.62" height="12.94" rx="6.47" ry="6.47"/><rect class="cls-1" x="490.33" y="119.24" width="87.88" height="12.94" rx="6.47" ry="6.47"/><path class="cls-1" d="M1558.09,1273.8a6.49,6.49,0,0,1,6.47,6.47v-6.47Z" transform="translate(-999.29 -1192.41)"/><path class="cls-1" d="M1558.09,1288.79a6.49,6.49,0,0,0,6.47-6.47v6.47Z" transform="translate(-999.29 -1192.41)"/><path class="cls-1" d="M1557.89,1260.86h-1.65a19.62,19.62,0,0,0-18.36,12.94h26.68v15h-26.68a19.62,19.62,0,0,0,18.36,12.94h1.65a19.67,19.67,0,0,0,19.61-19.61v-1.65A19.67,19.67,0,0,0,1557.89,1260.86Z" transform="translate(-999.29 -1192.41)"/><rect class="cls-1" x="1256" y="1224.81" width="20.07" height="12.94" rx="6.47" ry="6.47" transform="translate(1905.11 -620.43) rotate(113.88)"/><rect class="cls-1" x="1282.29" y="1272" width="15.85" height="12.94" rx="6.47" ry="6.47" transform="translate(-356.67 1783.04) rotate(-113.85)"/><rect class="cls-1" x="1282.29" y="1313.68" width="15.85" height="12.94" rx="6.47" ry="6.47" transform="translate(-394.79 1841.57) rotate(-113.85)"/><rect class="cls-1" x="192.29" y="35.66" width="36.96" height="12.94" rx="4.26" ry="4.26"/><rect class="cls-1" x="258.84" y="35.66" width="64.16" height="12.94" rx="6.47" ry="6.47"/><rect class="cls-1" x="258.84" y="58.74" width="64.16" height="12.94" rx="4.14" ry="4.14"/><rect class="cls-1" x="258.84" y="100.42" width="64.16" height="12.94" rx="0.69" ry="0.69"/><rect class="cls-1" x="258.84" y="142.1" width="39.09" height="12.94" rx="6.47" ry="6.47"/><rect class="cls-1" x="1138.43" y="1281.36" width="119.24" height="12.94" rx="4.26" ry="4.26" transform="translate(1486.59 -1102.63) rotate(90)"/><rect class="cls-1" x="1191.58" y="1334.51" width="36.96" height="12.94" rx="4.26" ry="4.26" transform="translate(1420.83 1489.54) rotate(180)"/><rect class="cls-1" x="1162.45" y="1281.22" width="119.24" height="12.94" rx="4.26" ry="4.26" transform="translate(-1064.91 1317.34) rotate(-90)"/><rect class="cls-1" x="1230.73" y="1233.68" width="25.22" height="12.94" rx="6.47" ry="6.47" transform="translate(-387.46 1686.35) rotate(-113.85)"/><rect class="cls-1" x="1230.73" y="1267.44" width="25.22" height="12.94" rx="6.47" ry="6.47" transform="translate(-418.33 1733.76) rotate(-113.85)"/><rect class="cls-1" x="1221.4" y="1318.76" width="43.87" height="12.94" rx="6.47" ry="6.47" transform="translate(1569.27 -1110.52) rotate(90)"/><rect class="cls-1" x="1216.45" y="1292.83" width="96.3" height="12.94" rx="4.12" ry="4.12" transform="translate(1564.61 -1157.71) rotate(90)"/><rect class="cls-1" x="1267.68" y="1292.83" width="96.3" height="12.94" rx="6.47" ry="6.47" transform="translate(1615.83 -1208.94) rotate(90)"/><path class="cls-3" d="M1015.72,1380.25q3.94,3,6.56,5.06l-1.87,2.06q-2.81-2.62-6.18-5.43Z" transform="translate(-999.29 -1192.41)"/><path class="cls-3" d="M1019.27,1393.36c1,.5,1.81.88,2.44,1.12q-1.31,5.82-3.93,16.3l-2.62-.93A158.37,158.37,0,0,0,1019.27,1393.36Z" transform="translate(-999.29 -1192.41)"/><path class="cls-3" d="M1017.78,1368.83q3.55,2.8,6.74,5.61l-2.06,2.06a71.46,71.46,0,0,0-6.37-6Z" transform="translate(-999.29 -1192.41)"/><path class="cls-3" d="M1027.52,1370.51h2.62v17q0,16.1-6.18,23.59a11.21,11.21,0,0,0-2.06-2.25q5.62-6.93,5.62-21.16Z" transform="translate(-999.29 -1192.41)"/><rect class="cls-3" x="30.29" y="178.1" width="28.65" height="2.43"/><path class="cls-3" d="M1037.07,1399.73l1.87,1.68q-3,3.74-6.55,7.68l-1.5-1.87Q1034.25,1403.47,1037.07,1399.73Z" transform="translate(-999.29 -1192.41)"/><rect class="cls-3" x="35.16" y="186.53" width="2.62" height="17.04"/><rect class="cls-3" x="37.03" y="194.02" width="16.67" height="2.24"/><rect class="cls-3" x="37.22" y="186.53" width="16.67" height="2.43"/><rect class="cls-3" x="37.22" y="201.13" width="16.67" height="2.43"/><path class="cls-3" d="M1043.25,1394.3h2.62v13.3q0,3.74-3.75,3.75c-1,0-2.5-.07-4.49-.19a8.53,8.53,0,0,0-.37-2.25q2.62.19,4.12.19a1.66,1.66,0,0,0,1.87-1.87Z" transform="translate(-999.29 -1192.41)"/><path class="cls-3" d="M1042.5,1371.64l2.81,1.12q-1.32,3.74-2.62,7.3l-2.24-.93A55.68,55.68,0,0,0,1042.5,1371.64Z" transform="translate(-999.29 -1192.41)"/><path class="cls-3" d="M1051.48,1399.35q2.63,3,6,7.11l-2.06,1.87q-3.19-4.11-5.81-7.31Z" transform="translate(-999.29 -1192.41)"/><rect class="cls-3" x="53.13" y="186.53" width="2.62" height="17.04"/><rect class="cls-3" x="97.28" y="181.47" width="2.62" height="37.46"/><rect class="cls-3" x="98.78" y="203.01" width="31.09" height="2.24"/><rect class="cls-3" x="99.15" y="181.47" width="30.71" height="2.43"/><rect class="cls-3" x="99.15" y="192.33" width="30.52" height="2.25"/><rect class="cls-3" x="99.15" y="213.68" width="30.52" height="2.43"/><path class="cls-3" d="M1110.05,1367.71l2.81.93c-.87,2.12-1.75,4.19-2.62,6.18l-2.44-.56Q1109.11,1370.89,1110.05,1367.71Z" transform="translate(-999.29 -1192.41)"/><rect class="cls-3" x="128.74" y="181.47" width="2.81" height="37.46"/><rect class="cls-3" x="170.63" y="182.41" width="42.89" height="2.62"/><path class="cls-3" d="M1198.76,1387.18l2.62,1.31a43.56,43.56,0,0,1-9,13.11q-5.81,5.43-21,9.74a20.41,20.41,0,0,0-1.5-2.82q14.23-3.74,20.41-9.17Q1195.21,1395.42,1198.76,1387.18Z" transform="translate(-999.29 -1192.41)"/><path class="cls-3" d="M1183.41,1380.06l2.06,2.07a76.79,76.79,0,0,1-12.55,9.36,24.14,24.14,0,0,0-1.87-2.62A59.73,59.73,0,0,0,1183.41,1380.06Z" transform="translate(-999.29 -1192.41)"/><path class="cls-3" d="M1183.59,1387.93a33.67,33.67,0,0,0,9,12q6.55,5.62,19.66,8.43a19.92,19.92,0,0,0-1.68,2.81q-13.48-3.74-20.79-9.74A39.91,39.91,0,0,1,1181,1389Z" transform="translate(-999.29 -1192.41)"/><path class="cls-3" d="M1190.9,1367.33q2.25,3.18,3.56,5.24l-2.43,1.69q-.75-1.12-3.37-5.25Z" transform="translate(-999.29 -1192.41)"/><path class="cls-3" d="M1198.2,1380.06q6.18,3.76,12.74,7.87l-1.69,2.62q-6.93-4.49-12.55-8Z" transform="translate(-999.29 -1192.41)"/><path class="cls-3" d="M1267.25,1367.89h3.18q0,6.38-.18,12.92a2,2,0,0,1-.37.75,2,2,0,0,0-.37.75q0,18.35-20.41,29a18.4,18.4,0,0,0-1.87-2.82q19.47-9.35,19.85-27.72Q1267.25,1374.44,1267.25,1367.89Z" transform="translate(-999.29 -1192.41)"/><rect class="cls-3" x="248.3" y="187.84" width="42.7" height="2.81"/><path class="cls-3" d="M1270.25,1380.43q3,20.6,20.22,27c-.75,1-1.44,1.94-2.06,2.82q-17.61-7.31-20.6-28.84Z" transform="translate(-999.29 -1192.41)"/><path class="cls-3" d="M1334.06,1367.89l2.24.94q-4.49,14.61-10.68,23.41a26.92,26.92,0,0,0-1.12-2.62A78,78,0,0,0,1334.06,1367.89Zm-3.37,14.42,2.25-4.77v33.61h-2.25Zm5.06,24.91h33.34v2.25h-33.34Zm2.25-34.65h30v2.25h-30Zm2.06,6.93h2.44v28.84H1340Zm1.31,0H1364v2.06h-22.66Zm0,13.85H1364v2.07h-22.66Zm0,6.93H1364v2.06h-22.66Zm.19-13.85H1364v2.06h-22.47Zm9.74-18.73h2.43v12.55h-2.43Zm11.61,11.8h2.44v29h-2.44Z" transform="translate(-999.29 -1192.41)"/><path class="cls-3" d="M1402.18,1394.48a57.63,57.63,0,0,0,10.3-15.35l2.06,1.12a68.85,68.85,0,0,1-11.43,17Z" transform="translate(-999.29 -1192.41)"/><path class="cls-3" d="M1402.36,1380.25a46.61,46.61,0,0,0,9.36-12.55l2.06,1.5a60.66,60.66,0,0,1-10.3,13.67A27.92,27.92,0,0,1,1402.36,1380.25Z" transform="translate(-999.29 -1192.41)"/><polygon class="cls-3" points="408.69 197.58 410.94 195.05 410.94 218.93 408.69 218.93 408.69 197.58"/><rect class="cls-3" x="416.18" y="204.13" width="30.9" height="2.43"/><rect class="cls-3" x="418.05" y="197.39" width="27.9" height="2.44"/><path class="cls-3" d="M1420.53,1400.1q3.18,2.25,5.8,4.31l-2.24,2.06q-2.63-2.43-5.43-4.68Z" transform="translate(-999.29 -1192.41)"/><rect class="cls-3" x="419.74" y="177.35" width="2.81" height="15.55"/><rect class="cls-3" x="420.3" y="190.65" width="22.1" height="2.25"/><rect class="cls-3" x="420.49" y="177.35" width="22.28" height="2.25"/><rect class="cls-3" x="420.68" y="183.91" width="22.28" height="2.25"/><path class="cls-3" d="M1436.26,1390.92h3v14.61c0,3.37-1.75,5.06-5.24,5.06h-6.56a9,9,0,0,0-.37-2.82q3.56.19,6.37.19c1.75,0,2.68-.94,2.81-2.81Z" transform="translate(-999.29 -1192.41)"/><rect class="cls-3" x="440.9" y="177.35" width="2.81" height="15.55"/><path class="cls-3" d="M1490,1367.89l2.44.75q-5.05,15-11.43,23.78a20.27,20.27,0,0,0-1.31-2.81A72.67,72.67,0,0,0,1490,1367.89Z" transform="translate(-999.29 -1192.41)"/><polygon class="cls-3" points="486.92 190.09 489.36 185.03 489.36 219.11 486.92 219.11 486.92 190.09"/><rect class="cls-3" x="493.66" y="181.47" width="31.09" height="2.24"/><rect class="cls-3" x="496.09" y="188.77" width="26.03" height="2.25"/><rect class="cls-3" x="496.09" y="196.08" width="26.03" height="2.25"/><rect class="cls-3" x="496.47" y="203.38" width="2.81" height="15.55"/><rect class="cls-3" x="497.97" y="203.38" width="22.47" height="2.24"/><rect class="cls-3" x="498.16" y="214.06" width="21.91" height="2.06"/><path class="cls-3" d="M1507.56,1367.51q1.87,2.81,3.37,5.25l-2.81,1.12a46.83,46.83,0,0,0-3.18-5.06Z" transform="translate(-999.29 -1192.41)"/><rect class="cls-3" x="518.94" y="203.38" width="2.81" height="15.55"/><path class="cls-3" d="M1566.68,1393l1.87.56a41.49,41.49,0,0,1-9.93,14.6,12.82,12.82,0,0,0-1.31-2.62A38,38,0,0,0,1566.68,1393Z" transform="translate(-999.29 -1192.41)"/><rect class="cls-3" x="559.15" y="180.16" width="19.29" height="2.43"/><rect class="cls-3" x="560.46" y="187.84" width="2.25" height="13.48"/><rect class="cls-3" x="561.59" y="187.84" width="14.8" height="2.06"/><rect class="cls-3" x="561.59" y="199.08" width="14.8" height="2.24"/><rect class="cls-3" x="567.58" y="175.1" width="2.62" height="43.83"/><path class="cls-3" d="M1570.61,1395.8q3.74,3,7.68,6.55l-1.87,1.87q-3.57-3.55-7.49-6.92Z" transform="translate(-999.29 -1192.41)"/><rect class="cls-3" x="575.07" y="187.84" width="2.43" height="13.48"/><path class="cls-3" d="M1585.78,1367.33l2.44.93a57.57,57.57,0,0,1-8.24,12.55c-.37-.49-.88-1.24-1.5-2.24A36.9,36.9,0,0,0,1585.78,1367.33Z" transform="translate(-999.29 -1192.41)"/><path class="cls-3" d="M1589.34,1386.06H1592v8.42q0,11.43-10.86,16.67a8.68,8.68,0,0,0-1.68-2.25q9.92-4.49,9.93-14.42Z" transform="translate(-999.29 -1192.41)"/><rect class="cls-3" x="581.63" y="188.59" width="2.43" height="19.29"/><rect class="cls-3" x="582.93" y="188.59" width="16.3" height="2.43"/><rect class="cls-3" x="585" y="179.03" width="12.17" height="2.44"/><polygon class="cls-3" points="596.61 179.03 597.92 179.03 597.92 181.47 593.24 189.52 590.43 189.34 596.61 179.03"/><path class="cls-3" d="M1591.21,1398.79q6,6,9.74,9.93l-2.24,2.06q-3.75-4.5-8.61-9.36Z" transform="translate(-999.29 -1192.41)"/><rect class="cls-3" x="598.1" y="188.59" width="2.43" height="19.29"/></svg>