<svg id="图层_1" data-name="图层 1" xmlns="http://www.w3.org/2000/svg" viewBox="0 0 648.97 188.22"><defs><style>.cls-1{fill:#f40009;}.cls-2{fill:#fff;}.cls-3{fill:#191e36;}</style></defs><title>资源 1</title><g id="图层_2" data-name="图层 2"><g id="图层_1-2" data-name="图层 1-2"><path class="cls-1" d="M162.38,93.89c5.39,13.61,10.93,27.17,16.47,40.72,5,12.34,11.36,25.08,10.13,38.78-1.76,19.73-25.11,15.43-38.47,11.45-12.5-3.73-24.7-8.62-37-13l-39.16-14L70,156.29c-12.33-4.43-24.68-8.86-36.71-14.07-5.47-2.36-12-4.58-16.62-8.28-4.12-3.26-8-6.61-11.06-10.94-4.35-6.34-6.59-14-5.28-21.58,2.76-16,13.93-30,24.21-42.07,11.9-13.91,24.3-27.68,38.68-39.11,12.67-10.07,33.68-25,50.67-18.76C127.35,6.4,132.82,22,138,34,146.67,53.74,153.89,74.07,162.38,93.89Z" transform="translate(0 0)"/><rect class="cls-2" x="47.42" y="48.88" width="14.8" height="44.91" rx="4.22" ry="4.22"/><rect class="cls-2" x="93.42" y="78.98" width="14.8" height="67.86" rx="4.26" ry="4.26"/><rect class="cls-2" x="93.42" y="49.72" width="14.8" height="25.37" rx="4.26" ry="4.26"/><rect class="cls-2" x="46.69" y="98.53" width="14.8" height="25.37" rx="4.26" ry="4.26"/><rect class="cls-2" x="47.42" y="78.99" width="60.8" height="14.8" rx="4.26" ry="4.26"/><rect class="cls-2" x="119.35" y="68.27" width="14.8" height="93.3" rx="4.26" ry="4.26"/><circle class="cls-2" cx="126.76" cy="57.12" r="7.4"/><rect class="cls-1" x="382.97" y="32.25" width="13.62" height="101.35" rx="5.98" ry="5.98"/><rect class="cls-1" x="482.68" y="97.87" width="13.62" height="35.74" rx="5.98" ry="5.98"/><path class="cls-1" d="M475.88,111.49a6.82,6.82,0,0,1,6.8,6.8v-6.8Z" transform="translate(0 0)"/><path class="cls-1" d="M475.89,21.58a6.82,6.82,0,0,1,6.81,6.81V21.58Z" transform="translate(0 0)"/><path class="cls-1" d="M475.89,45.87a6.82,6.82,0,0,1,6.81,6.81V45.87Z" transform="translate(0 0)"/><rect class="cls-1" x="361.6" y="7.97" width="34.99" height="13.62" rx="5.98" ry="5.98"/><rect class="cls-1" x="444.23" y="97.87" width="52.08" height="13.62" rx="5.98" ry="5.98"/><rect class="cls-1" x="444.22" y="7.97" width="52.1" height="13.62" rx="4.12" ry="4.12"/><rect class="cls-1" x="405.74" y="32.26" width="90.58" height="13.62" rx="0.69" ry="0.69"/><rect class="cls-1" x="405.74" y="77.21" width="90.58" height="13.62" rx="5.98" ry="5.98"/><rect class="cls-1" x="405.74" y="56.55" width="90.58" height="13.62" rx="4.12" ry="4.12"/><rect class="cls-1" x="482.7" y="7.96" width="13.62" height="62.2" rx="4.12" ry="4.12"/><rect class="cls-1" x="405.74" y="7.97" width="13.62" height="62.2" rx="5.98" ry="5.98"/><rect class="cls-1" x="444.22" y="7.96" width="13.62" height="125.62" rx="5.98" ry="5.98"/><rect class="cls-1" x="361.6" y="32.26" width="34.99" height="13.62" rx="5.98" ry="5.98"/><rect class="cls-1" x="382.97" y="119.97" width="33.43" height="13.62" rx="5.98" ry="5.98"/><path class="cls-1" d="M436.82,89.75,417,130a7.28,7.28,0,0,1-9.94,2.64h0a7.29,7.29,0,0,1-2.39-10l19.82-40.2a7.3,7.3,0,0,1,9.94-2.64h0A7.3,7.3,0,0,1,436.82,89.75Z" transform="translate(0 0)"/><path class="cls-1" d="M377.47,45.87c3,0,5.5,3.07,5.5,6.81V45.87Z" transform="translate(0 0)"/><rect class="cls-1" x="632.98" y="17.97" width="13.62" height="24.95" rx="5.98" ry="5.98" transform="translate(35 241.36) rotate(-21.95)"/><rect class="cls-1" x="574" y="78.04" width="13.62" height="51.65" rx="5.98" ry="5.98"/><rect class="cls-1" x="534.58" y="42.47" width="13.62" height="43.01" rx="5.98" ry="5.98"/><rect class="cls-1" x="513.21" y="119.97" width="135.21" height="13.62" rx="5.98" ry="5.98"/><rect class="cls-1" x="551.79" y="7.52" width="13.62" height="24.95" rx="5.98" ry="5.98" transform="translate(33.02 210.25) rotate(-21.95)"/><rect class="cls-1" x="511.21" y="25.08" width="24.97" height="13.63" rx="5.99" ry="5.99" transform="matrix(0.37, -0.93, 0.93, 0.37, 300.47, 506.7)"/><rect class="cls-1" x="517.2" y="18.43" width="50.34" height="13.62" rx="5.98" ry="5.98"/><rect class="cls-1" x="574.01" y="18.43" width="70.5" height="13.62" rx="5.98" ry="5.98"/><rect class="cls-1" x="574.01" y="1.15" width="13.62" height="30.64" rx="5.98" ry="5.98"/><rect class="cls-1" x="534.58" y="42.47" width="79.57" height="13.62" rx="5.98" ry="5.98"/><rect class="cls-1" x="534.58" y="71.86" width="79.57" height="13.62" rx="5.98" ry="5.98"/><rect class="cls-1" x="534.58" y="95.92" width="92.48" height="13.62" rx="5.98" ry="5.98"/><path class="cls-1" d="M606.63,56.08a6.85,6.85,0,0,1,6.81,6.81V56.08Z" transform="translate(0 0)"/><path class="cls-1" d="M606.63,71.86a6.82,6.82,0,0,0,6.81-6.81v6.81Z" transform="translate(0 0)"/><path class="cls-1" d="M606.42,42.47h-1.74a20.64,20.64,0,0,0-19.32,13.61h28.08V71.86H585.36a20.65,20.65,0,0,0,19.32,13.62h1.74a20.69,20.69,0,0,0,20.63-20.64V63.1A20.69,20.69,0,0,0,606.42,42.47Z" transform="translate(0 0)"/><rect class="cls-1" x="275" y="4.52" width="21.12" height="13.62" rx="5.98" ry="5.98" transform="translate(159.6 267.86) rotate(-66.12)"/><rect class="cls-1" x="304.21" y="52.66" width="13.62" height="16.68" rx="5.98" ry="5.98" transform="translate(1.89 130.97) rotate(-23.85)"/><rect class="cls-1" x="304.21" y="96.52" width="13.62" height="16.68" rx="5.98" ry="5.98" transform="translate(-15.84 134.71) rotate(-23.85)"/><rect class="cls-1" x="207.23" y="7.97" width="38.89" height="13.62" rx="4.26" ry="4.26"/><rect class="cls-1" x="277.26" y="7.97" width="67.52" height="13.62" rx="5.98" ry="5.98"/><rect class="cls-1" x="277.26" y="32.26" width="67.52" height="13.62" rx="4.14" ry="4.14"/><rect class="cls-1" x="277.26" y="76.11" width="67.52" height="13.62" rx="0.69" ry="0.69"/><rect class="cls-1" x="277.26" y="119.97" width="41.14" height="13.62" rx="5.98" ry="5.98"/><rect class="cls-1" x="207.23" y="8.11" width="13.62" height="125.47" rx="4.26" ry="4.26"/><rect class="cls-1" x="207.23" y="119.97" width="38.89" height="13.62" rx="4.26" ry="4.26"/><rect class="cls-1" x="232.5" y="7.96" width="13.62" height="125.47" rx="4.26" ry="4.26"/><rect class="cls-1" x="254.88" y="7.41" width="13.62" height="26.53" rx="5.98" ry="5.98" transform="translate(13.99 107.58) rotate(-23.85)"/><rect class="cls-1" x="254.89" y="42.94" width="13.62" height="26.53" rx="5.98" ry="5.98" transform="translate(-0.38 110.61) rotate(-23.85)"/><rect class="cls-1" x="254.88" y="87.13" width="13.62" height="46.16" rx="5.98" ry="5.98"/><rect class="cls-1" x="277.26" y="32.25" width="13.62" height="101.33" rx="4.12" ry="4.12"/><rect class="cls-1" x="331.16" y="32.25" width="13.62" height="101.33" rx="5.98" ry="5.98"/><path class="cls-3" d="M208.45,161q3.23,2.44,5.37,4.14l-1.53,1.68c-1.53-1.43-3.21-2.92-5.06-4.45Z" transform="translate(0 0)"/><path class="cls-3" d="M211.37,171.74a21.23,21.23,0,0,0,2,.92q-1.06,4.77-3.22,13.34l-2.15-.76A130.53,130.53,0,0,0,211.37,171.74Z" transform="translate(0 0)"/><path class="cls-3" d="M210.14,151.67c1.94,1.52,3.78,3.06,5.52,4.59L214,158a57.61,57.61,0,0,0-5.21-4.91Z" transform="translate(0 0)"/><path class="cls-3" d="M218.11,153h2.15v14q0,13.19-5.06,19.31a9,9,0,0,0-1.69-1.84q4.61-5.67,4.6-17.32Z" transform="translate(0 0)"/><rect class="cls-3" x="219.8" y="153.04" width="23.46" height="1.99"/><path class="cls-3" d="M225.93,177l1.53,1.38c-1.63,2-3.41,4.14-5.36,6.29l-1.23-1.54Q223.63,180,225.93,177Z" transform="translate(0 0)"/><rect class="cls-3" x="223.78" y="159.95" width="2.15" height="13.95"/><rect class="cls-3" x="225.32" y="166.08" width="13.64" height="1.83"/><rect class="cls-3" x="225.47" y="159.95" width="13.64" height="1.99"/><rect class="cls-3" x="225.47" y="171.9" width="13.64" height="1.99"/><path class="cls-3" d="M231,172.51h2.15V183.4a2.72,2.72,0,0,1-2.32,3.07,3.14,3.14,0,0,1-.75,0c-.82,0-2-.06-3.68-.16a7.22,7.22,0,0,0-.3-1.84c1.43.11,2.55.16,3.37.16a1.36,1.36,0,0,0,1.53-1.16,1.21,1.21,0,0,0,0-.38Z" transform="translate(0 0)"/><path class="cls-3" d="M230.38,154l2.3.93q-1.08,3.06-2.15,6l-1.84-.76A45.4,45.4,0,0,0,230.38,154Z" transform="translate(0 0)"/><path class="cls-3" d="M237.74,176.65q2.14,2.46,4.9,5.83L241,184q-2.61-3.36-4.76-6Z" transform="translate(0 0)"/><rect class="cls-3" x="238.5" y="159.95" width="2.15" height="13.95"/><rect class="cls-3" x="269.12" y="156.27" width="2.14" height="30.66"/><rect class="cls-3" x="270.34" y="173.9" width="25.45" height="1.83"/><rect class="cls-3" x="270.65" y="156.27" width="25.14" height="1.99"/><rect class="cls-3" x="270.65" y="165.15" width="24.99" height="1.84"/><rect class="cls-3" x="270.65" y="182.63" width="24.99" height="1.99"/><path class="cls-3" d="M280.16,151.21l2.29.76c-.71,1.74-1.43,3.43-2.14,5.06l-2-.46C279,154.73,279.64,152.94,280.16,151.21Z" transform="translate(0 0)"/><rect class="cls-3" x="294.87" y="156.27" width="2.3" height="30.66"/><rect class="cls-3" x="323.49" y="157.18" width="35.11" height="2.15"/><path class="cls-3" d="M347.1,167.3l2.15,1.08a35.5,35.5,0,0,1-7.36,10.73q-4.75,4.44-17.17,8a16.36,16.36,0,0,0-1.23-2.3q11.65-3.08,16.72-7.51Q344.19,174,347.1,167.3Z" transform="translate(0 0)"/><path class="cls-3" d="M334.53,161.47l1.69,1.69A62.58,62.58,0,0,1,326,170.83a19.12,19.12,0,0,0-1.54-2.15A48.06,48.06,0,0,0,334.53,161.47Z" transform="translate(0 0)"/><path class="cls-3" d="M334.68,167.92a27.68,27.68,0,0,0,7.37,9.81q5.35,4.59,16.09,6.9a17.29,17.29,0,0,0-1.38,2.3q-11-3.08-17-8a32.5,32.5,0,0,1-7.21-10.12Z" transform="translate(0 0)"/><path class="cls-3" d="M340.67,151.05q1.83,2.61,2.91,4.29l-2,1.39q-.63-.93-2.77-4.3Z" transform="translate(0 0)"/><path class="cls-3" d="M346.64,161.47q5.07,3.08,10.43,6.45l-1.38,2.14q-5.67-3.67-10.27-6.59Z" transform="translate(0 0)"/><path class="cls-3" d="M397.65,151.28h2.6q0,5.22-.15,10.58a1.47,1.47,0,0,1-.31.61,1.7,1.7,0,0,0-.3.62q0,15-16.72,23.76a15.32,15.32,0,0,0-1.53-2.3q15.94-7.67,16.25-22.69C397.59,158.38,397.65,154.86,397.65,151.28Z" transform="translate(0 0)"/><rect class="cls-3" x="381.55" y="161.4" width="34.96" height="2.3"/><path class="cls-3" d="M400.1,161.55q2.44,16.88,16.56,22.08c-.62.82-1.18,1.59-1.69,2.3q-14.42-6-16.86-23.61Z" transform="translate(0 0)"/><path class="cls-3" d="M446.43,151.43l1.84.78q-3.69,12-8.74,19.16c-.27-.73-.58-1.45-.92-2.15A63.82,63.82,0,0,0,446.43,151.43Zm-2.76,11.81,1.84-3.91v27.52h-1.84Zm4.14,20.39H475.1v1.84H447.81Zm1.84-28.36h24.53v1.84H449.65Zm1.68,5.67h2v23.61h-2Zm1.08,0H471v1.69H452.41Zm0,11.34H471V174H452.41Zm0,5.68H471v1.68H452.41Zm.15-11.34H471v1.68H452.6Zm8-15.34h2v10.28h-2Zm9.51,9.66h2V184.7h-2Z" transform="translate(0 0)"/><path class="cls-3" d="M496.67,173.13a47.57,47.57,0,0,0,8.42-12.57l1.69.92a56.34,56.34,0,0,1-9.35,14C497.22,174.82,497,174.05,496.67,173.13Z" transform="translate(0 0)"/><path class="cls-3" d="M496.82,161.48a38.37,38.37,0,0,0,7.66-10.27l1.69,1.22a50.1,50.1,0,0,1-8.43,11.2C497.43,163,497.13,162.29,496.82,161.48Z" transform="translate(0 0)"/><polygon class="cls-3" points="501.42 169.45 503.26 167.38 503.26 186.93 501.42 186.93 501.42 169.45"/><rect class="cls-3" x="507.55" y="174.82" width="25.3" height="1.99"/><rect class="cls-3" x="509.08" y="169.29" width="22.84" height="2"/><path class="cls-3" d="M511.69,177.73c1.74,1.23,3.32,2.41,4.75,3.52l-1.84,1.69q-2.15-2-4.44-3.83Z" transform="translate(0 0)"/><rect class="cls-3" x="510.46" y="152.89" width="2.3" height="12.73"/><rect class="cls-3" x="510.92" y="163.77" width="18.09" height="1.84"/><rect class="cls-3" x="511.08" y="152.89" width="18.24" height="1.84"/><rect class="cls-3" x="511.23" y="158.26" width="18.24" height="1.84"/><path class="cls-3" d="M524.57,170.21H527v12c0,2.75-1.43,4.14-4.29,4.14h-5.37A7.24,7.24,0,0,0,517,184c2,.1,3.68.16,5.22.16s2.19-.77,2.3-2.3Z" transform="translate(0 0)"/><rect class="cls-3" x="527.78" y="152.89" width="2.3" height="12.73"/><path class="cls-3" d="M562.92,151.36l2,.61q-4.14,12.28-9.36,19.47a15.9,15.9,0,0,0-1.07-2.29A59.35,59.35,0,0,0,562.92,151.36Z" transform="translate(0 0)"/><polygon class="cls-3" points="559.86 163.32 561.85 159.18 561.85 187.08 559.86 187.08 559.86 163.32"/><rect class="cls-3" x="565.38" y="156.27" width="25.45" height="1.83"/><rect class="cls-3" x="567.37" y="162.24" width="21.31" height="1.84"/><rect class="cls-3" x="567.37" y="168.23" width="21.31" height="1.84"/><rect class="cls-3" x="567.67" y="174.21" width="2.3" height="12.73"/><rect class="cls-3" x="568.9" y="174.21" width="18.4" height="1.83"/><rect class="cls-3" x="569.06" y="182.94" width="17.94" height="1.68"/><path class="cls-3" d="M577.33,151.05q1.53,2.31,2.76,4.3l-2.3.92a39.39,39.39,0,0,0-2.6-4.14Z" transform="translate(0 0)"/><rect class="cls-3" x="586.07" y="174.21" width="2.3" height="12.73"/><path class="cls-3" d="M618.37,172.06l1.53.45a34.06,34.06,0,0,1-8.13,12,11.26,11.26,0,0,0-1.07-2.14A31.39,31.39,0,0,0,618.37,172.06Z" transform="translate(0 0)"/><rect class="cls-3" x="611.62" y="155.34" width="15.79" height="1.99"/><rect class="cls-3" x="612.69" y="161.63" width="1.84" height="11.03"/><rect class="cls-3" x="613.61" y="161.63" width="12.11" height="1.68"/><rect class="cls-3" x="613.61" y="170.83" width="12.11" height="1.83"/><rect class="cls-3" x="618.52" y="151.2" width="2.14" height="35.88"/><path class="cls-3" d="M621.59,174.36c2,1.63,4.13,3.41,6.28,5.36l-1.53,1.53c-2-1.94-4-3.83-6.14-5.67Z" transform="translate(0 0)"/><rect class="cls-3" x="624.65" y="161.63" width="1.99" height="11.03"/><path class="cls-3" d="M634,151.05l2,.77a48,48,0,0,1-6.75,10.27,21.91,21.91,0,0,1-1.23-1.84A30.27,30.27,0,0,0,634,151.05Z" transform="translate(0 0)"/><path class="cls-3" d="M636.92,166.38h2.14v6.9q0,9.34-8.89,13.65a7.38,7.38,0,0,0-1.38-1.85q8.13-3.66,8.13-11.8Z" transform="translate(0 0)"/><rect class="cls-3" x="630.02" y="162.24" width="1.99" height="15.79"/><rect class="cls-3" x="631.09" y="162.24" width="13.34" height="1.99"/><rect class="cls-3" x="632.78" y="154.42" width="9.96" height="2"/><polygon class="cls-3" points="642.28 154.42 643.36 154.42 643.36 156.42 639.52 163.01 637.22 162.86 642.28 154.42"/><path class="cls-3" d="M638.45,176.8q4.9,4.92,8,8.13l-1.84,1.69c-2-2.46-4.4-5-7.05-7.67Z" transform="translate(0 0)"/><rect class="cls-3" x="643.51" y="162.24" width="1.99" height="15.79"/></g></g></svg>