<svg id="图层_1" data-name="图层 1" xmlns="http://www.w3.org/2000/svg" viewBox="0 0 601.66 219.11"><defs><style>.cls-1{fill:#f40009}.cls-2{fill:#fff}.cls-3{fill:#727272}</style></defs><title>logo-横版</title><path class="cls-1" d="M1141.23 1274.48c4.71 11.9 9.55 23.75 14.39 35.6 4.4 10.78 9.93 21.92 8.86 33.9-1.54 17.25-22 13.48-33.63 10-10.92-3.26-21.59-7.53-32.31-11.38l-34.23-12.28-3.76-1.35c-10.78-3.87-21.58-7.74-32.09-12.3-4.78-2.07-10.45-4-14.53-7.24a46.57 46.57 0 0 1-9.67-9.57 25.36 25.36 0 0 1-4.65-18.81c2.41-14 12.18-26.26 21.16-36.77 10.4-12.16 21.24-24.2 33.81-34.19 11.08-8.8 29.44-21.86 44.29-16.41 11.73 4.31 16.51 17.94 21.08 28.41 7.55 17.3 13.86 35.07 21.28 52.39z" transform="translate(-999.29 -1192.41)"/><rect class="cls-2" x="1027.58" y="1248.3" width="39.26" height="12.94" rx="4.22" ry="4.22" transform="rotate(-90 -48.64 1158.21)"/><rect class="cls-2" x="1057.76" y="1284.65" width="59.32" height="12.94" rx="4.26" ry="4.26" transform="rotate(-90 -8.435 1194.555)"/><rect class="cls-2" x="1076.33" y="1240.49" width="22.18" height="12.94" rx="4.26" ry="4.26" transform="rotate(-90 -8.435 1150.405)"/><rect class="cls-2" x="1035.49" y="1283.16" width="22.18" height="12.94" rx="4.26" ry="4.26" transform="rotate(-90 -49.275 1193.065)"/><rect class="cls-2" x="1040.74" y="1261.46" width="53.15" height="12.94" rx="4.26" ry="4.26" transform="rotate(-180 567.67 671.725)"/><rect class="cls-2" x="1069.31" y="1286.4" width="81.55" height="12.94" rx="4.26" ry="4.26" transform="rotate(-90 14.24 1196.31)"/><circle class="cls-2" cx="110.8" cy="49.93" r="6.47"/><rect class="cls-1" x="1309.85" y="1292.84" width="96.31" height="12.94" rx="6.47" ry="6.47" transform="rotate(-90 262.16 1202.75)"/><rect class="cls-1" x="1435.78" y="1324.02" width="33.96" height="12.94" rx="6.47" ry="6.47" transform="rotate(-90 356.915 1233.925)"/><path class="cls-1" d="M1439.83 1326.44a6.49 6.49 0 0 1 6.47 6.47v-6.47zm.01-85.44a6.49 6.49 0 0 1 6.47 6.47V1241zm0 23.09a6.49 6.49 0 0 1 6.47 6.47v-6.47z" transform="translate(-999.29 -1192.41)"/><rect class="cls-1" x="331.94" y="35.66" width="33.25" height="12.94" rx="6.47" ry="6.47"/><rect class="cls-1" x="410.47" y="121.09" width="49.49" height="12.94" rx="6.47" ry="6.47"/><rect class="cls-1" x="410.45" y="35.66" width="49.51" height="12.94" rx="4.12" ry="4.12"/><rect class="cls-1" x="373.88" y="58.74" width="86.08" height="12.94" rx=".69" ry=".69"/><rect class="cls-1" x="373.88" y="101.46" width="86.08" height="12.94" rx="6.47" ry="6.47"/><rect class="cls-1" x="373.88" y="81.82" width="86.08" height="12.94" rx="4.12" ry="4.12"/><rect class="cls-1" x="1423.22" y="1251.15" width="59.11" height="12.94" rx="4.12" ry="4.12" transform="rotate(-90 356.93 1161.06)"/><rect class="cls-1" x="1350.09" y="1251.15" width="59.11" height="12.94" rx="6.47" ry="6.47" transform="rotate(-90 283.79 1161.06)"/><rect class="cls-1" x="1356.52" y="1281.29" width="119.38" height="12.94" rx="6.47" ry="6.47" transform="rotate(-90 320.36 1191.2)"/><rect class="cls-1" x="331.94" y="58.74" width="33.25" height="12.94" rx="6.47" ry="6.47"/><rect class="cls-1" x="352.25" y="142.1" width="31.76" height="12.94" rx="6.47" ry="6.47"/><path class="cls-1" d="M1402.71 1305.79l-18.83 38.2a6.93 6.93 0 0 1-9.45 2.51 6.93 6.93 0 0 1-2.27-9.51l18.83-38.2a6.93 6.93 0 0 1 9.45-2.51 6.93 6.93 0 0 1 2.27 9.51zm-56.4-41.7c2.88 0 5.23 2.91 5.23 6.47v-6.47z" transform="translate(-999.29 -1192.41)"/><rect class="cls-1" x="1577.72" y="1242.97" width="23.71" height="12.94" rx="6.47" ry="6.47" transform="rotate(68.05 1973.048 -86.725)"/><rect class="cls-1" x="1509.02" y="1312.73" width="49.08" height="12.94" rx="6.47" ry="6.47" transform="rotate(90 1630.12 223.35)"/><rect class="cls-1" x="1475.65" y="1274.82" width="40.87" height="12.94" rx="6.47" ry="6.47" transform="rotate(90 1592.65 185.44)"/><rect class="cls-1" x="470.03" y="142.1" width="128.49" height="12.94" rx="6.47" ry="6.47"/><rect class="cls-1" x="1500.62" y="1233.02" width="23.71" height="12.94" rx="6.47" ry="6.47" transform="rotate(-111.95 610.237 980.638)"/><rect class="cls-1" x="1465.65" y="1243.01" width="23.71" height="12.94" rx="6.47" ry="6.47" transform="rotate(111.95 1380.389 315.873)"/><rect class="cls-1" x="473.82" y="45.6" width="47.84" height="12.94" rx="6.47" ry="6.47"/><rect class="cls-1" x="1527.09" y="1238.02" width="67" height="12.94" rx="6.47" ry="6.47" transform="rotate(-180 1060.945 648.28)"/><rect class="cls-1" x="1519" y="1229.68" width="29.11" height="12.94" rx="6.47" ry="6.47" transform="rotate(-90 437.71 1139.59)"/><rect class="cls-1" x="490.33" y="68.44" width="75.62" height="12.94" rx="6.47" ry="6.47"/><rect class="cls-1" x="490.33" y="96.38" width="75.62" height="12.94" rx="6.47" ry="6.47"/><rect class="cls-1" x="490.33" y="119.24" width="87.88" height="12.94" rx="6.47" ry="6.47"/><path class="cls-1" d="M1558.09 1273.8a6.49 6.49 0 0 1 6.47 6.47v-6.47zm0 14.99a6.49 6.49 0 0 0 6.47-6.47v6.47z" transform="translate(-999.29 -1192.41)"/><path class="cls-1" d="M1557.89 1260.86h-1.65a19.62 19.62 0 0 0-18.36 12.94h26.68v15h-26.68a19.62 19.62 0 0 0 18.36 12.94h1.65a19.67 19.67 0 0 0 19.61-19.61v-1.65a19.67 19.67 0 0 0-19.61-19.62z" transform="translate(-999.29 -1192.41)"/><rect class="cls-1" x="1256" y="1224.81" width="20.07" height="12.94" rx="6.47" ry="6.47" transform="rotate(113.88 1154.473 309.8)"/><rect class="cls-1" x="1282.29" y="1272" width="15.85" height="12.94" rx="6.47" ry="6.47" transform="rotate(-113.85 402.285 1007.664)"/><rect class="cls-1" x="1282.29" y="1313.68" width="15.85" height="12.94" rx="6.47" ry="6.47" transform="rotate(-113.85 402.285 1049.342)"/><rect class="cls-1" x="192.29" y="35.66" width="36.96" height="12.94" rx="4.26" ry="4.26"/><rect class="cls-1" x="258.84" y="35.66" width="64.16" height="12.94" rx="6.47" ry="6.47"/><rect class="cls-1" x="258.84" y="58.74" width="64.16" height="12.94" rx="4.14" ry="4.14"/><rect class="cls-1" x="258.84" y="100.42" width="64.16" height="12.94" rx=".69" ry=".69"/><rect class="cls-1" x="258.84" y="142.1" width="39.09" height="12.94" rx="6.47" ry="6.47"/><rect class="cls-1" x="1138.43" y="1281.36" width="119.24" height="12.94" rx="4.26" ry="4.26" transform="rotate(90 1294.61 191.98)"/><rect class="cls-1" x="1191.58" y="1334.51" width="36.96" height="12.94" rx="4.26" ry="4.26" transform="rotate(180 710.415 744.77)"/><rect class="cls-1" x="1162.45" y="1281.22" width="119.24" height="12.94" rx="4.26" ry="4.26" transform="rotate(-90 126.215 1191.125)"/><rect class="cls-1" x="1230.73" y="1233.68" width="25.22" height="12.94" rx="6.47" ry="6.47" transform="rotate(-113.85 355.405 969.346)"/><rect class="cls-1" x="1230.73" y="1267.44" width="25.22" height="12.94" rx="6.47" ry="6.47" transform="rotate(-113.85 355.408 1003.103)"/><rect class="cls-1" x="1221.4" y="1318.76" width="43.87" height="12.94" rx="6.47" ry="6.47" transform="rotate(90 1339.895 229.375)"/><rect class="cls-1" x="1216.45" y="1292.83" width="96.3" height="12.94" rx="4.12" ry="4.12" transform="rotate(90 1361.16 203.45)"/><rect class="cls-1" x="1267.68" y="1292.83" width="96.3" height="12.94" rx="6.47" ry="6.47" transform="rotate(90 1412.385 203.445)"/><path class="cls-3" d="M1015.72 1380.25q3.94 3 6.56 5.06l-1.87 2.06q-2.81-2.62-6.18-5.43zm3.55 13.11c1 .5 1.81.88 2.44 1.12q-1.31 5.82-3.93 16.3l-2.62-.93a158.37 158.37 0 0 0 4.11-16.49zm-1.49-24.53q3.55 2.8 6.74 5.61l-2.06 2.06a71.46 71.46 0 0 0-6.37-6zm9.74 1.68h2.62v17q0 16.1-6.18 23.59a11.21 11.21 0 0 0-2.06-2.25q5.62-6.93 5.62-21.16z" transform="translate(-999.29 -1192.41)"/><path class="cls-3" d="M30.29 178.1h28.65v2.43H30.29z"/><path class="cls-3" d="M1037.07 1399.73l1.87 1.68q-3 3.74-6.55 7.68l-1.5-1.87q3.36-3.75 6.18-7.49z" transform="translate(-999.29 -1192.41)"/><path class="cls-3" d="M35.16 186.53h2.62v17.04h-2.62z"/><path class="cls-3" d="M37.03 194.02H53.7v2.24H37.03zm.19-7.49h16.67v2.43H37.22zm0 14.6h16.67v2.43H37.22z"/><path class="cls-3" d="M1043.25 1394.3h2.62v13.3q0 3.74-3.75 3.75c-1 0-2.5-.07-4.49-.19a8.53 8.53 0 0 0-.37-2.25q2.62.19 4.12.19a1.66 1.66 0 0 0 1.87-1.87zm-.75-22.66l2.81 1.12q-1.32 3.74-2.62 7.3l-2.24-.93a55.68 55.68 0 0 0 2.05-7.49zm8.98 27.71q2.63 3 6 7.11l-2.06 1.87q-3.19-4.11-5.81-7.31z" transform="translate(-999.29 -1192.41)"/><path class="cls-3" d="M53.13 186.53h2.62v17.04h-2.62zm44.15-5.06h2.62v37.46h-2.62z"/><path class="cls-3" d="M98.78 203.01h31.09v2.24H98.78zm.37-21.54h30.71v2.43H99.15zm0 10.86h30.52v2.25H99.15zm0 21.35h30.52v2.43H99.15z"/><path class="cls-3" d="M1110.05 1367.71l2.81.93c-.87 2.12-1.75 4.19-2.62 6.18l-2.44-.56q1.31-3.37 2.25-6.55z" transform="translate(-999.29 -1192.41)"/><path class="cls-3" d="M128.74 181.47h2.81v37.46h-2.81zm41.89.94h42.89v2.62h-42.89z"/><path class="cls-3" d="M1198.76 1387.18l2.62 1.31a43.56 43.56 0 0 1-9 13.11q-5.81 5.43-21 9.74a20.41 20.41 0 0 0-1.5-2.82q14.23-3.74 20.41-9.17 4.92-3.93 8.47-12.17zm-15.35-7.12l2.06 2.07a76.79 76.79 0 0 1-12.55 9.36 24.14 24.14 0 0 0-1.87-2.62 59.73 59.73 0 0 0 12.36-8.81z" transform="translate(-999.29 -1192.41)"/><path class="cls-3" d="M1183.59 1387.93a33.67 33.67 0 0 0 9 12q6.55 5.62 19.66 8.43a19.92 19.92 0 0 0-1.68 2.81q-13.48-3.74-20.79-9.74A39.91 39.91 0 0 1 1181 1389zm7.31-20.6q2.25 3.18 3.56 5.24l-2.43 1.69q-.75-1.12-3.37-5.25zm7.3 12.73q6.18 3.76 12.74 7.87l-1.69 2.62q-6.93-4.49-12.55-8zm69.05-12.17h3.18q0 6.38-.18 12.92a2 2 0 0 1-.37.75 2 2 0 0 0-.37.75q0 18.35-20.41 29a18.4 18.4 0 0 0-1.87-2.82q19.47-9.35 19.85-27.72.17-6.33.17-12.88z" transform="translate(-999.29 -1192.41)"/><path class="cls-3" d="M248.3 187.84H291v2.81h-42.7z"/><path class="cls-3" d="M1270.25 1380.43q3 20.6 20.22 27c-.75 1-1.44 1.94-2.06 2.82q-17.61-7.31-20.6-28.84zm63.81-12.54l2.24.94q-4.49 14.61-10.68 23.41a26.92 26.92 0 0 0-1.12-2.62 78 78 0 0 0 9.56-21.73zm-3.37 14.42l2.25-4.77v33.61h-2.25zm5.06 24.91h33.34v2.25h-33.34zm2.25-34.65h30v2.25h-30zm2.06 6.93h2.44v28.84h-2.5zm1.31 0H1364v2.06h-22.66zm0 13.85H1364v2.07h-22.66zm0 6.93H1364v2.06h-22.66zm.19-13.85H1364v2.06h-22.47zm9.74-18.73h2.43v12.55h-2.43zm11.61 11.8h2.44v29h-2.44zm39.27 14.98a57.63 57.63 0 0 0 10.3-15.35l2.06 1.12a68.85 68.85 0 0 1-11.43 17zm.18-14.23a46.61 46.61 0 0 0 9.36-12.55l2.06 1.5a60.66 60.66 0 0 1-10.3 13.67 27.92 27.92 0 0 1-1.12-2.62z" transform="translate(-999.29 -1192.41)"/><path class="cls-3" d="M408.69 197.58l2.25-2.53v23.88h-2.25v-21.35zm7.49 6.55h30.9v2.43h-30.9zm1.87-6.74h27.9v2.44h-27.9z"/><path class="cls-3" d="M1420.53 1400.1q3.18 2.25 5.8 4.31l-2.24 2.06q-2.63-2.43-5.43-4.68z" transform="translate(-999.29 -1192.41)"/><path class="cls-3" d="M419.74 177.35h2.81v15.55h-2.81z"/><path class="cls-3" d="M420.3 190.65h22.1v2.25h-22.1zm.19-13.3h22.28v2.25h-22.28zm.19 6.56h22.28v2.25h-22.28z"/><path class="cls-3" d="M1436.26 1390.92h3v14.61c0 3.37-1.75 5.06-5.24 5.06h-6.56a9 9 0 0 0-.37-2.82q3.56.19 6.37.19c1.75 0 2.68-.94 2.81-2.81z" transform="translate(-999.29 -1192.41)"/><path class="cls-3" d="M440.9 177.35h2.81v15.55h-2.81z"/><path class="cls-3" d="M1490 1367.89l2.44.75q-5.05 15-11.43 23.78a20.27 20.27 0 0 0-1.31-2.81 72.67 72.67 0 0 0 10.3-21.72z" transform="translate(-999.29 -1192.41)"/><path class="cls-3" d="M486.92 190.09l2.44-5.06v34.08h-2.44v-29.02zm6.74-8.62h31.09v2.24h-31.09zm2.43 7.3h26.03v2.25h-26.03zm0 7.31h26.03v2.25h-26.03zm.38 7.3h2.81v15.55h-2.81z"/><path class="cls-3" d="M497.97 203.38h22.47v2.24h-22.47zm.19 10.68h21.91v2.06h-21.91z"/><path class="cls-3" d="M1507.56 1367.51q1.87 2.81 3.37 5.25l-2.81 1.12a46.83 46.83 0 0 0-3.18-5.06z" transform="translate(-999.29 -1192.41)"/><path class="cls-3" d="M518.94 203.38h2.81v15.55h-2.81z"/><path class="cls-3" d="M1566.68 1393l1.87.56a41.49 41.49 0 0 1-9.93 14.6 12.82 12.82 0 0 0-1.31-2.62 38 38 0 0 0 9.37-12.54z" transform="translate(-999.29 -1192.41)"/><path class="cls-3" d="M559.15 180.16h19.29v2.43h-19.29zm1.31 7.68h2.25v13.48h-2.25z"/><path class="cls-3" d="M561.59 187.84h14.8v2.06h-14.8zm0 11.24h14.8v2.24h-14.8z"/><path class="cls-3" d="M567.58 175.1h2.62v43.83h-2.62z"/><path class="cls-3" d="M1570.61 1395.8q3.74 3 7.68 6.55l-1.87 1.87q-3.57-3.55-7.49-6.92z" transform="translate(-999.29 -1192.41)"/><path class="cls-3" d="M575.07 187.84h2.43v13.48h-2.43z"/><path class="cls-3" d="M1585.78 1367.33l2.44.93a57.57 57.57 0 0 1-8.24 12.55c-.37-.49-.88-1.24-1.5-2.24a36.9 36.9 0 0 0 7.3-11.24zm3.56 18.73h2.66v8.42q0 11.43-10.86 16.67a8.68 8.68 0 0 0-1.68-2.25q9.92-4.49 9.93-14.42z" transform="translate(-999.29 -1192.41)"/><path class="cls-3" d="M581.63 188.59h2.43v19.29h-2.43z"/><path class="cls-3" d="M582.93 188.59h16.3v2.43h-16.3zm2.07-9.56h12.17v2.44H585z"/><path class="cls-3" d="M596.61 179.03h1.31v2.44l-4.68 8.05-2.81-.18 6.18-10.31z"/><path class="cls-3" d="M1591.21 1398.79q6 6 9.74 9.93l-2.24 2.06q-3.75-4.5-8.61-9.36z" transform="translate(-999.29 -1192.41)"/><path class="cls-3" d="M598.1 188.59h2.43v19.29h-2.43z"/></svg>